<svg width="515" height="418" viewBox="0 0 515 418" fill="none" xmlns="http://www.w3.org/2000/svg">
<path d="M189.335 187.789H181.246C178.828 187.789 177.232 188.178 176.457 188.957C175.682 189.735 175.294 191.319 175.294 193.707V209.435H186.174C189.025 209.435 191.474 208.241 193.52 205.853L194.264 204.997L196.123 205.853V219.168L192.962 220.103L192.404 218.312C191.846 216.547 190.87 215.366 189.475 214.769C188.08 214.172 185.678 213.874 182.268 213.874H175.294V228.901C175.294 231.289 175.697 232.95 176.503 233.885C177.309 234.819 178.89 235.572 181.246 236.143L183.384 236.61L182.268 239.257H161.904L160.695 238.012L161.904 236.61C163.454 234.897 164.539 233.08 165.159 231.16C165.779 229.239 166.089 226.721 166.089 223.607V199.001C166.089 195.887 165.779 193.369 165.159 191.448C164.539 189.528 163.454 187.711 161.904 185.998L160.695 184.596L161.904 183.351H189.428C194.76 183.351 198.293 182.805 200.029 181.715L201.703 180.703L203.19 181.715V195.575L200.029 196.51L199.471 194.719C198.603 191.916 197.518 190.06 196.216 189.151C194.915 188.243 192.621 187.789 189.335 187.789L189.335 187.789Z" fill="#777F42"/>
<path d="M242.152 236.143C243.639 235.831 244.709 235.416 245.36 234.897C246.011 234.378 246.336 233.677 246.336 232.795C246.336 231.912 245.995 230.614 245.313 228.901L240.85 218H219.37L217.138 223.684C215.712 227.266 215 229.966 215 231.782C215 233.599 215.434 235.208 216.301 236.61L217.138 238.012L215.372 239.257H198.262L197.146 236.61L199.285 236.143C201.765 235.572 203.562 234.819 204.678 233.885C205.794 232.95 206.848 231.289 207.84 228.901L222.439 193.706C223.12 191.993 223.461 190.696 223.461 189.813C223.461 188.931 223.136 188.23 222.485 187.711C221.834 187.192 220.765 186.777 219.277 186.465L217.138 185.998L218.254 183.35H236.201L254.891 228.512C255.883 230.9 256.967 232.717 258.145 233.963C259.323 235.208 261.028 236.558 263.26 238.012L262.051 239.257H241.129L240.013 236.61L242.152 236.143M229.97 191.371L221.323 213.173H238.897L229.97 191.371Z" fill="#777F42"/>
<path d="M313.286 237.233C310.745 239.309 307.924 240.348 304.825 240.348C301.725 240.348 299.245 239.621 297.386 238.167C295.526 236.714 293.697 234.404 291.899 231.237L284.832 218.701C284.275 217.663 283.577 216.91 282.74 216.443C281.903 215.976 280.493 215.431 278.509 214.808C277.332 214.445 276.743 213.744 276.743 212.706C276.743 211.667 277.239 211.148 278.23 211.148C278.292 211.148 278.788 211.239 279.718 211.421C280.648 211.602 281.671 211.693 282.787 211.693C287.436 211.693 291.063 210.59 293.666 208.384C296.27 206.178 297.572 203.206 297.572 199.469C297.572 195.731 296.192 192.655 293.434 190.242C290.675 187.828 286.863 186.621 281.996 186.621C277.13 186.621 274.697 187.815 274.697 190.203V223.607C274.697 226.721 275.007 229.226 275.627 231.121C276.247 233.015 277.332 234.845 278.881 236.61L280.09 238.012L278.881 239.257H258.517L257.401 236.61L259.54 236.143C261.896 235.624 263.477 234.871 264.282 233.885C265.088 232.898 265.491 231.237 265.491 228.901V190.436C265.491 189.19 264.809 188.567 263.446 188.567H258.052L256.937 185.686C259.602 184.804 263.12 184.012 267.49 183.312C271.861 182.611 276.061 182.26 280.09 182.26C289.265 182.26 296.084 183.844 300.547 187.01C305.011 190.177 307.242 194.278 307.242 199.313C307.242 203.154 305.971 206.502 303.43 209.357C300.888 212.212 297.138 214.133 292.178 215.119C293.542 215.898 294.782 217.17 295.898 218.935L304.546 233.651C305.475 235.26 306.591 236.065 307.893 236.065C309.195 236.065 310.466 235.702 311.706 234.975L313.286 237.233Z" fill="#777F42"/>
<path d="M367.218 236.143C369.202 235.624 370.582 234.962 371.356 234.157C372.131 233.353 372.519 232.353 372.519 231.16C372.519 229.966 372.457 228.798 372.333 227.656L369.636 195.186L350.202 233.651H345.181L325.747 195.186L323.701 219.168C323.329 222.802 323.143 225.346 323.143 226.799C323.143 230.64 324.259 233.911 326.49 236.61L327.606 238.012L326.211 239.257H308.73L307.707 236.61L309.846 236.143C312.263 235.52 313.922 234.741 314.821 233.807C315.719 232.873 316.262 231.237 316.448 228.901L318.959 198.067C319.268 195.991 319.423 194.031 319.423 192.188C319.423 190.345 319.036 189.035 318.261 188.256C317.486 187.477 316.076 186.88 314.03 186.465L311.892 185.998L312.914 183.351H329.838L348.993 222.517L368.706 183.351H382.096L383.491 184.596L382.375 185.998C380.144 188.697 379.028 191.968 379.028 195.809C379.028 196.588 379.183 198.923 379.493 202.817L381.352 224.152C381.662 227.37 382.298 230.056 383.259 232.211C384.22 234.365 385.723 236.299 387.768 238.012L386.56 239.257H366.196L365.08 236.61L367.218 236.143Z" fill="#777F42"/>
<path d="M404.227 190.203V223.607C404.227 226.773 404.537 229.304 405.157 231.198C405.777 233.093 406.862 234.897 408.411 236.61L409.62 238.012L408.411 239.257H388.047L386.932 236.61L389.07 236.143C391.426 235.624 393.007 234.871 393.813 233.885C394.618 232.898 395.021 231.237 395.021 228.901V190.436C395.021 189.19 394.34 188.567 392.976 188.567H387.583L386.467 185.686C389.132 184.804 392.65 184.012 397.021 183.312C401.391 182.611 405.591 182.26 409.62 182.26C418.795 182.26 425.614 183.986 430.077 187.438C434.541 190.89 436.772 195.29 436.772 200.636C436.772 205.983 434.882 210.37 431.1 213.796C427.319 217.222 421.771 218.935 414.456 218.935C412.162 218.935 410.225 218.701 408.644 218.234C407.063 217.767 406.273 217.001 406.273 215.937C406.273 214.873 406.769 214.341 407.761 214.341C407.823 214.341 408.319 214.432 409.248 214.613C410.178 214.795 411.201 214.886 412.317 214.886C416.966 214.886 420.593 213.64 423.196 211.148C425.8 208.657 427.102 205.295 427.102 201.065C427.102 196.834 425.722 193.369 422.964 190.67C420.205 187.97 416.393 186.621 411.527 186.621C406.66 186.621 404.227 187.815 404.227 190.203L404.227 190.203Z" fill="#777F42"/>
<path d="M441.701 228.901V193.707C441.701 191.319 441.298 189.658 440.492 188.723C439.686 187.789 438.105 187.036 435.75 186.465L433.611 185.998L434.727 183.351H455.091L456.3 184.596L455.091 185.998C453.541 187.711 452.456 189.528 451.836 191.448C451.216 193.369 450.906 195.887 450.906 199.001V229.446C450.906 231.679 451.278 233.236 452.022 234.118C452.766 235.001 454.285 235.728 456.579 236.299L458.531 236.766L457.508 239.257H434.727L433.611 236.61L435.75 236.143C438.105 235.572 439.686 234.819 440.492 233.885C441.298 232.95 441.701 231.289 441.701 228.901V228.901Z" fill="#777F42"/>
<path d="M137.677 219.484C137.677 225.217 135.301 230.714 131.071 234.767C126.841 238.821 121.105 241.098 115.123 241.098C109.141 241.098 103.404 238.821 99.1744 234.767C94.9446 230.714 92.5683 225.217 92.5683 219.484C92.5683 213.752 94.9446 208.255 99.1744 204.202C103.404 200.148 109.141 197.871 115.123 197.871C121.105 197.871 126.841 200.148 131.071 204.202C135.301 208.255 137.677 213.752 137.677 219.484Z" fill="black"/>
<path fill-rule="evenodd" clip-rule="evenodd" d="M43.9604 163.749L62.1195 164.27L62.4791 167.569L77.7615 167.396L78.4807 199.693H82.0764L80.8179 166.007L87.8298 161.493V155.936L43.42 156.457L43.9594 163.75H43.9594L43.9604 163.749Z" fill="#666666"/>
<path fill-rule="evenodd" clip-rule="evenodd" d="M46.8468 181.185C47.3294 180.019 50.9494 175.358 50.9494 175.358L51.794 173.96L50.2254 167.201L51.1906 164.987L52.6386 163.822L58.4302 162.773L60.1194 164.521V167.318L60.8434 169.998L59.7575 170.464V171.746L59.6368 173.028L58.3095 173.96L57.5856 174.426L57.8269 177.805L59.7575 181.301L62.774 183.049L67.359 185.962L68.5656 187.128V189.925L72.0648 183.282L73.1508 182.35L74.2367 182.7L74.5987 183.632L73.2714 186.429L73.1507 188.876L73.8747 189.458L75.4433 190.74L78.2185 195.401L80.873 195.518L83.769 191.206L86.4235 192.838L84.3723 196.334L85.0962 196.683L89.9226 193.653L90.8879 206.704L74.3574 206.588L61.2054 186.662L46.6054 182.933L46.8467 181.185L46.8468 181.185Z" fill="#434345"/>
<path fill-rule="evenodd" clip-rule="evenodd" d="M53.056 219.846L74.4053 227.837L119.296 228.038L132.539 208.749C132.539 208.749 135.919 197.529 132.354 190.705C131.137 188.375 129.022 187.64 126.339 187.328C120.183 186.612 103.946 185.455 89.9032 185.522C90.2072 190.225 91.1135 199.399 91.1361 206.555C86.5881 206.764 79.0959 206.889 77.1912 206.8C73.9168 200.386 67.0741 187.558 62.8435 184.309C56.5364 183.438 43.8859 182.012 37.685 182.218C32.0064 182.407 22.0502 180.984 19.0004 185.213C17.329 187.531 18.758 189.293 17.5639 191.871C16.3905 194.405 11.1796 198.77 11.1796 198.77L22.3274 204.559L53.0573 219.846L53.056 219.846Z" fill="#008000"/>
<path fill-rule="evenodd" clip-rule="evenodd" d="M91.0104 191.325L132.892 192.288C132.892 192.288 133.206 192.821 133.382 194.163C131.486 194.163 91.1231 193.909 91.1231 193.909L91.0116 191.325H91.0104Z" fill="#FFFF00" stroke="black"/>
<path fill-rule="evenodd" clip-rule="evenodd" d="M72.2458 151.056C60.5364 151.034 48.2749 151.492 44.7223 152.465C42.3563 153.114 41.4571 157.103 41.4571 157.103L39.0323 182.56C47.7733 183.233 61.8768 183.981 63.357 185.158C68.6284 189.348 77.3503 207.67 77.3503 207.67H92.2876L89.7966 160.821L92.5586 158.745L93.3802 155.829C93.3802 155.829 89.6877 152.299 88.1343 152.183C83.5081 151.84 79.2716 151.068 72.246 151.055L72.2458 151.056ZM45.264 158.619L61.425 158.796C61.425 158.796 61.5704 160.991 61.8271 183.816C60.2103 183.142 52.1732 182.438 44.259 181.764L45.2641 158.619L45.264 158.619ZM87.1397 158.737L90.1378 206.253L76.9049 206.27C76.9049 206.27 70.6129 191.959 63.7067 184.728L63.226 158.898L87.1398 158.738L87.1397 158.737Z" fill="#1A1A1A"/>
<path d="M91.2342 194.609H133.552" stroke="black"/>
<path fill-rule="evenodd" clip-rule="evenodd" d="M41.5103 157.447L93.5948 156.124C93.5948 156.124 92.0791 153.821 91.3104 153.182C90.1026 152.178 88.1818 150.897 86.5892 150.829C76.5054 150.399 62.3487 150.085 52.0191 150.976C49.3856 151.203 45.3562 150.797 43.3385 152.447C42.0813 153.475 41.511 157.447 41.511 157.447H41.5103Z" fill="#008000"/>
<path fill-rule="evenodd" clip-rule="evenodd" d="M34.1767 182.349L36.228 161.723L42.0199 157.412L42.2612 153.916L37.6762 153.683L37.4348 157.062L37.9175 156.713L35.2629 158.228L33.9356 158.286L33.815 161.199L35.1423 161.374" fill="#18181A"/>
<path d="M34.1767 182.349L36.228 161.723L42.0199 157.412L42.2612 153.916L37.6762 153.683L37.4348 157.062L37.9175 156.713L35.2629 158.228L33.9356 158.286L33.815 161.199L35.1423 161.374" stroke="black"/>
<path fill-rule="evenodd" clip-rule="evenodd" d="M94.9345 161.026L94.4048 161.715L93.6632 185.463C93.6632 185.463 93.9096 186.013 94.2989 186.152C94.8434 186.347 95.8787 186.415 96.4177 186.215C96.7549 186.089 97.0533 185.525 97.0533 185.525L97.689 161.841L97.2652 161.151V158.833C97.2652 158.833 96.6505 158.492 96.3117 158.457C95.9244 158.417 95.0404 158.645 95.0404 158.645L94.9345 161.026L94.9345 161.026Z" fill="url(#paint0_linear_501_84)"/>
<path d="M155.441 221.813C155.441 225.005 154.79 228.166 153.524 231.116C152.259 234.065 150.405 236.745 148.068 239.003C145.73 241.26 142.955 243.051 139.901 244.273C136.847 245.494 133.574 246.123 130.268 246.123C126.963 246.123 123.689 245.494 120.635 244.273C117.581 243.051 114.806 241.26 112.469 239.003C110.131 236.745 108.277 234.065 107.012 231.116C105.747 228.166 105.096 225.005 105.096 221.813C105.096 218.62 105.747 215.459 107.012 212.51C108.277 209.56 110.131 206.88 112.469 204.623C114.806 202.365 117.581 200.575 120.635 199.353C123.689 198.131 126.963 197.502 130.268 197.502C133.574 197.502 136.847 198.131 139.901 199.353C142.955 200.575 145.73 202.365 148.068 204.623C150.405 206.88 152.259 209.56 153.524 212.51C154.79 215.459 155.441 218.62 155.441 221.813Z" fill="#1A1A1A"/>
<path d="M73.5492 216.546C73.5884 220.573 72.801 224.568 71.2323 228.3C69.6636 232.031 67.3448 235.426 64.4098 238.287C61.4749 241.148 57.9819 243.42 54.1328 244.97C50.2837 246.52 46.1547 247.318 41.9843 247.318C37.814 247.318 33.685 246.52 29.8359 244.97C25.9868 243.42 22.4938 241.148 19.5589 238.287C16.6239 235.426 14.3051 232.031 12.7364 228.3C11.1677 224.568 10.3803 220.573 10.4195 216.546C10.3803 212.518 11.1677 208.523 12.7364 204.792C14.3051 201.06 16.6239 197.665 19.5589 194.804C22.4938 191.943 25.9868 189.671 29.8359 188.121C33.685 186.571 37.814 185.773 41.9843 185.773C46.1547 185.773 50.2837 186.571 54.1328 188.121C57.9819 189.671 61.4749 191.943 64.4098 194.804C67.3448 197.665 69.6636 201.06 71.2323 204.792C72.801 208.523 73.5884 212.518 73.5492 216.546Z" fill="#1A1A1A"/>
<path d="M59.5169 216.691C59.5358 219.009 59.0793 221.308 58.1738 223.455C57.2683 225.602 55.9318 227.554 54.2412 229.2C52.5506 230.845 50.5395 232.151 48.3238 233.042C46.108 233.934 43.7315 234.393 41.3313 234.393C38.931 234.393 36.5545 233.934 34.3388 233.042C32.123 232.151 30.1119 230.845 28.4213 229.2C26.7308 227.554 25.3942 225.602 24.4887 223.455C23.5833 221.308 23.1268 219.009 23.1456 216.691C23.1268 214.373 23.5833 212.075 24.4887 209.928C25.3942 207.781 26.7308 205.829 28.4213 204.183C30.1119 202.538 32.123 201.232 34.3388 200.34C36.5545 199.449 38.931 198.99 41.3313 198.99C43.7315 198.99 46.108 199.449 48.3238 200.34C50.5395 201.232 52.5506 202.538 54.2412 204.183C55.9318 205.829 57.2683 207.781 58.1738 209.928C59.0793 212.075 59.5358 214.373 59.5169 216.691Z" fill="#FFFF00"/>
<path d="M145.106 222.156C145.106 225.748 143.628 229.193 140.998 231.732C138.368 234.272 134.801 235.699 131.082 235.699C127.363 235.699 123.796 234.272 121.166 231.732C118.536 229.193 117.058 225.748 117.058 222.156C117.058 218.564 118.536 215.119 121.166 212.579C123.796 210.039 127.363 208.612 131.082 208.612C134.801 208.612 138.368 210.039 140.998 212.579C143.628 215.119 145.106 218.564 145.106 222.156Z" fill="#FFFF00"/>
<path d="M56.3312 216.386C56.3312 220.228 54.7507 223.913 51.9374 226.63C49.1241 229.347 45.3085 230.874 41.3299 230.874C37.3513 230.874 33.5356 229.347 30.7223 226.63C27.909 223.913 26.3285 220.228 26.3285 216.386C26.3285 212.544 27.909 208.859 30.7223 206.142C33.5356 203.425 37.3513 201.898 41.3299 201.898C45.3085 201.898 49.1241 203.425 51.9374 206.142C54.7507 208.859 56.3312 212.544 56.3312 216.386Z" fill="black"/>
<path d="M142.505 222.267C142.505 225.287 141.313 228.184 139.191 230.32C137.068 232.456 134.19 233.656 131.189 233.656C128.188 233.656 125.31 232.456 123.188 230.32C121.066 228.184 119.874 225.287 119.874 222.267C119.874 219.246 121.066 216.349 123.188 214.213C125.31 212.077 128.188 210.877 131.189 210.877C134.19 210.877 137.068 212.077 139.191 214.213C141.313 216.349 142.505 219.246 142.505 222.267Z" fill="black"/>
<path fill-rule="evenodd" clip-rule="evenodd" d="M33.3667 202.54C33.3667 202.54 33.176 204.57 35.0873 204.57C36.9986 204.57 49.9947 205.987 49.9947 205.987L52.1617 204.511L55.3465 210.231L53.9438 211.524L52.2875 224.505L53.4353 226.228L50.8869 228.689L48.3385 227.459L31.9652 225.798L29.5439 226.536L26.9955 223.46L28.9711 221.796L30.7545 208.384L29.1625 205.739L33.3666 202.54L33.3667 202.54Z" fill="#FFFF00"/>
<path fill-rule="evenodd" clip-rule="evenodd" d="M124.593 210.398C124.593 210.398 124.439 212.166 125.983 212.166C127.526 212.166 138.023 213.399 138.023 213.399L139.773 212.115L142.345 217.096L141.212 218.222L139.874 229.526L140.801 231.027L138.743 233.171L136.685 232.099L123.461 230.652L121.506 231.295L119.448 228.616L121.043 227.167L122.484 215.487L121.198 213.183L124.593 210.398L124.593 210.398Z" fill="#FFFF00"/>
<path d="M62.1628 158.239H42.3046V182.346H62.1628V158.239Z" fill="white" stroke="black"/>
<path d="M88.9435 158.239H62.8621V184.44H88.9435V158.239Z" fill="white" stroke="black"/>
<path d="M88.8735 184.507L90.4119 206.184L76.9166 206.319L67.3371 189.504L63.0019 184.642L88.8735 184.507Z" fill="black"/>
<defs>
<linearGradient id="paint0_linear_501_84" x1="97.8117" y1="169.986" x2="90.4261" y2="169.986" gradientUnits="userSpaceOnUse">
<stop stop-color="#1A1C1A"/>
<stop offset="1" stop-color="#C3C6C6"/>
</linearGradient>
</defs>
</svg>
